<svg width="50" height="50" viewBox="0 0 50 50" fill="none" xmlns="http://www.w3.org/2000/svg">
<path d="M44.975 0.083313H19.6417V8.55554H25.975V11.9444H5.39166C2.7 11.9444 0.641663 14.1472 0.641663 17.0278V35.6666C0.641663 38.5472 2.7 40.75 5.39166 40.75H6.975V49.3916L16.95 40.75H27.5583V28.8889H44.975C47.6667 28.8889 49.725 26.6861 49.725 23.8055V5.16665C49.725 2.28609 47.6667 0.083313 44.975 0.083313ZM17.7417 33.8028L16.95 31.0916H12.0417L11.0917 33.8028H7.29166L12.5167 18.7222H16.3167L21.5417 33.8028H17.7417ZM41.8083 20.4166V23.8055C39.75 23.8055 37.5333 23.1278 35.6333 22.1111C33.7333 23.1278 31.5167 23.6361 29.3 23.8055L29.1417 20.4166C30.25 20.4166 31.3583 20.2472 32.4667 19.9083C31.0417 18.3833 30.0917 16.5194 29.6167 14.4861H32.9417C33.4167 16.0111 34.3667 17.1972 35.475 18.2139C37.2167 16.6889 38.325 14.4861 38.4833 11.9444H28.9833V8.55554H33.7333V5.16665H36.9V8.55554H42.125L42.2833 10.25C42.4417 13.8083 41.175 17.3666 38.8 19.9083C39.9083 20.2472 40.8583 20.4166 41.8083 20.4166Z" fill="black"/>
</svg>
